<?xml version="1.0" encoding="UTF-8"?>
<svg id="Layer_2" data-name="Layer 2" xmlns="http://www.w3.org/2000/svg" viewBox="0 0 706.97 324.41">
  <defs>
    <style>
      .cls-1 {
        fill: #fd1111;
      }

      .cls-1, .cls-2, .cls-3 {
        stroke-width: 0px;
      }

      .cls-3 {
        fill: #fff;
      }
    </style>
  </defs>
  <g id="Layer_1-2" data-name="Layer 1">
    <g>
      <circle class="cls-1" cx="544.77" cy="162.2" r="162.2"/>
      <path class="cls-2" d="M48.76,171.48c-1.96-1.68-4.19-3.03-6.69-4.07-2.5-1.03-5.05-1.93-7.65-2.68-2.61-.75-5.16-1.43-7.65-2.03-2.5-.61-4.73-1.32-6.69-2.14-1.96-.82-3.53-1.84-4.71-3.05-1.18-1.21-1.77-2.75-1.77-4.6,0-2.28,1-4.21,3-5.78,2-1.57,5.25-2.35,9.74-2.35,3.35,0,6.65.57,9.9,1.71,3.25,1.14,6.58,3.07,10.01,5.78l7.81-9.74c-3.42-2.93-7.48-5.33-12.15-7.23-4.67-1.89-9.9-2.84-15.68-2.84-4.21,0-7.94.54-11.18,1.61-3.25,1.07-5.96,2.55-8.14,4.44-2.18,1.89-3.84,4.16-4.98,6.8-1.14,2.64-1.71,5.53-1.71,8.67,0,3.36.59,6.15,1.77,8.4,1.18,2.25,2.74,4.12,4.71,5.62,1.96,1.5,4.19,2.73,6.69,3.69s5.05,1.8,7.65,2.52c2.6.71,5.15,1.41,7.65,2.09,2.5.68,4.73,1.5,6.69,2.46,1.96.96,3.53,2.16,4.71,3.59,1.18,1.43,1.77,3.25,1.77,5.46,0,1.14-.2,2.3-.59,3.48-.39,1.18-1.11,2.21-2.14,3.1-1.04.89-2.41,1.62-4.12,2.19-1.71.57-3.85.86-6.42.86-4.07,0-7.71-.68-10.92-2.03-3.21-1.35-6.28-3.28-9.21-5.78l-8.46,9.2c1.43,1.36,3.1,2.7,5.03,4.01,1.93,1.32,4.08,2.5,6.48,3.53,2.39,1.04,5.01,1.86,7.87,2.46,2.85.61,5.96.91,9.31.91,4.57,0,8.51-.59,11.83-1.77,3.32-1.18,6.06-2.78,8.24-4.82,2.18-2.03,3.8-4.46,4.87-7.28,1.07-2.82,1.61-5.83,1.61-9.04,0-3.57-.59-6.6-1.77-9.1-1.18-2.5-2.75-4.58-4.71-6.26Z"/>
      <path class="cls-2" d="M106.18,161.9c-2.43-2.43-5.35-4.3-8.78-5.62-3.42-1.32-7.21-1.98-11.35-1.98s-7.9.66-11.29,1.98c-3.39,1.32-6.3,3.17-8.72,5.57-2.43,2.39-4.3,5.28-5.62,8.67-1.32,3.39-1.98,7.16-1.98,11.29s.66,7.92,1.98,11.35c1.32,3.42,3.16,6.35,5.51,8.78,2.35,2.43,5.17,4.3,8.46,5.62,3.28,1.32,6.85,1.98,10.7,1.98s7.22-.61,9.9-1.82c2.68-1.21,4.66-2.64,5.94-4.28v5.14h12.84v-26.54c0-4.14-.66-7.92-1.98-11.35-1.32-3.42-3.19-6.35-5.62-8.78ZM96.92,193.58c-2.68,2.78-6.26,4.17-10.76,4.17s-8.1-1.39-10.81-4.17c-2.71-2.78-4.07-6.67-4.07-11.67s1.35-8.88,4.07-11.67c2.71-2.78,6.31-4.17,10.81-4.17s8.08,1.39,10.76,4.17c2.68,2.78,4.01,6.67,4.01,11.67s-1.34,8.88-4.01,11.67Z"/>
      <path class="cls-2" d="M200.16,161.84c-2-2.25-4.55-4.1-7.65-5.57-3.1-1.46-6.87-2.19-11.29-2.19s-8.05.73-10.86,2.19c-2.82,1.46-5.07,3.32-6.74,5.57-.21.28-.39.58-.59.87-.2-.29-.38-.59-.59-.87-1.68-2.25-3.93-4.1-6.75-5.57-2.82-1.46-6.44-2.19-10.86-2.19s-8.19.73-11.29,2.19c-3.1,1.46-5.66,3.32-7.65,5.57-2,2.25-3.44,4.69-4.34,7.33-.89,2.64-1.34,5.14-1.34,7.49v31.9h12.84v-31.58c0-1.93.32-3.57.96-4.92.64-1.36,1.5-2.5,2.57-3.43,1.07-.93,2.32-1.61,3.75-2.03,1.43-.43,2.93-.64,4.5-.64s3.07.21,4.5.64c1.43.43,2.68,1.11,3.75,2.03,1.07.93,1.93,2.07,2.57,3.43.64,1.36.96,3,.96,4.92v31.58h12.84v-31.58c0-1.93.32-3.57.96-4.92.64-1.36,1.5-2.5,2.57-3.43,1.07-.93,2.32-1.61,3.75-2.03,1.43-.43,2.93-.64,4.5-.64s3.07.21,4.5.64c1.43.43,2.68,1.11,3.75,2.03,1.07.93,1.93,2.07,2.57,3.43.64,1.36.96,3,.96,4.92v31.58h12.84v-31.9c0-2.35-.45-4.85-1.34-7.49-.89-2.64-2.34-5.08-4.34-7.33Z"/>
      <path class="cls-2" d="M258.39,161.9c-2.43-2.43-5.35-4.3-8.78-5.62-3.42-1.32-7.21-1.98-11.35-1.98s-7.9.66-11.29,1.98c-3.39,1.32-6.3,3.17-8.72,5.57-2.43,2.39-4.3,5.28-5.62,8.67-1.32,3.39-1.98,7.16-1.98,11.29s.66,7.92,1.98,11.35c1.32,3.42,3.16,6.35,5.51,8.78,2.35,2.43,5.17,4.3,8.46,5.62,3.28,1.32,6.85,1.98,10.7,1.98s7.22-.61,9.9-1.82c2.68-1.21,4.66-2.64,5.94-4.28v5.14h12.84v-26.54c0-4.14-.66-7.92-1.98-11.35-1.32-3.42-3.19-6.35-5.62-8.78ZM249.13,193.58c-2.68,2.78-6.26,4.17-10.76,4.17s-8.1-1.39-10.81-4.17c-2.71-2.78-4.07-6.67-4.07-11.67s1.35-8.88,4.07-11.67c2.71-2.78,6.31-4.17,10.81-4.17s8.08,1.39,10.76,4.17,4.01,6.67,4.01,11.67-1.34,8.88-4.01,11.67Z"/>
      <path class="cls-1" d="M278.83,132.46c-2,0-3.68.7-5.03,2.09-1.36,1.39-2.03,3.05-2.03,4.98,0,2.07.68,3.78,2.03,5.14,1.36,1.36,3.03,2.03,5.03,2.03s3.67-.68,5.03-2.03c1.36-1.35,2.03-3.07,2.03-5.14,0-1.93-.68-3.58-2.03-4.98-1.36-1.39-3.03-2.09-5.03-2.09Z"/>
      <rect class="cls-2" x="272.41" y="155.05" width="12.84" height="53.52"/>
      <path class="cls-2" d="M304.09,183.84v-17.02h12.2v-11.78h-12.2v-21.41h-12.84v50.31c0,8.28,2.26,14.57,6.8,18.89,4.53,4.32,11.22,6.48,20.07,6.48v-11.77c-5.07,0-8.67-1.05-10.81-3.16-2.14-2.1-3.21-5.62-3.21-10.54Z"/>
      <path class="cls-2" d="M373.18,170.67c-1.32-3.42-3.19-6.35-5.62-8.78-2.43-2.43-5.35-4.3-8.78-5.62-3.42-1.32-7.21-1.98-11.35-1.98s-7.9.66-11.29,1.98c-3.39,1.32-6.3,3.17-8.72,5.57-2.43,2.39-4.3,5.28-5.62,8.67-1.32,3.39-1.98,7.16-1.98,11.29s.66,7.92,1.98,11.35c1.32,3.42,3.16,6.35,5.51,8.78,2.35,2.43,5.17,4.3,8.46,5.62,3.28,1.32,6.85,1.98,10.7,1.98s7.22-.61,9.9-1.82c2.68-1.21,4.66-2.64,5.94-4.28v5.14h12.84v-26.54c0-4.14-.66-7.92-1.98-11.35ZM358.3,193.58c-2.68,2.78-6.26,4.17-10.76,4.17s-8.1-1.39-10.81-4.17c-2.71-2.78-4.07-6.67-4.07-11.67s1.35-8.88,4.07-11.67c2.71-2.78,6.31-4.17,10.81-4.17s8.08,1.39,10.76,4.17,4.01,6.67,4.01,11.67-1.34,8.88-4.01,11.67Z"/>
      <g>
        <path class="cls-3" d="M407.43,134.82h15.52l21.84,57.05,21.73-57.05h15.52v74.93h-13.38v-45.92l-17.34,45.49.11.43h-13.38l.11-.43-17.34-45.49v45.92h-13.38v-74.93Z"/>
        <path class="cls-3" d="M514.58,198.93c5.42,0,9.46-1.93,12.1-5.78h14.02c-1.78,5.42-4.94,9.7-9.47,12.84-4.53,3.14-10.04,4.71-16.54,4.71-4.14,0-7.92-.66-11.35-1.98-3.43-1.32-6.35-3.19-8.78-5.62-2.43-2.43-4.3-5.35-5.62-8.78-1.32-3.43-1.98-7.21-1.98-11.35s.66-7.9,1.98-11.29c1.32-3.39,3.19-6.28,5.62-8.67,2.42-2.39,5.35-4.24,8.78-5.57,3.42-1.32,7.21-1.98,11.35-1.98s7.9.66,11.29,1.98c3.39,1.32,6.3,3.17,8.72,5.57,2.43,2.39,4.3,5.28,5.62,8.67,1.32,3.39,1.98,7.16,1.98,11.29,0,.79-.02,1.52-.05,2.19-.04.68-.09,1.37-.16,2.09h-41.85c.71,3.71,2.32,6.58,4.82,8.62,2.5,2.03,5.67,3.05,9.53,3.05ZM528.06,175.49c-1.14-2.64-2.87-4.67-5.19-6.1-2.32-1.43-5.08-2.14-8.3-2.14s-5.96.71-8.24,2.14c-2.28,1.43-4,3.46-5.14,6.1h26.87Z"/>
        <path class="cls-3" d="M602.13,134.82v48.27c0,4.28-.73,8.13-2.19,11.56-1.46,3.42-3.44,6.31-5.94,8.67-2.5,2.35-5.46,4.16-8.88,5.41-3.43,1.25-7.1,1.87-11.03,1.87s-7.76-.66-11.08-1.98c-3.32-1.32-6.19-3.19-8.62-5.62-2.43-2.43-4.3-5.31-5.62-8.67-1.32-3.35-1.98-7.1-1.98-11.24s.66-7.92,1.98-11.35c1.32-3.42,3.16-6.35,5.51-8.78,2.35-2.42,5.17-4.3,8.46-5.62,3.28-1.32,6.85-1.98,10.7-1.98s7.14.61,9.85,1.82c2.71,1.21,4.71,2.64,5.99,4.28v-26.65h12.84ZM559.64,182.98c0,5,1.34,8.88,4.01,11.67,2.68,2.78,6.26,4.17,10.76,4.17s8.1-1.39,10.81-4.17c2.71-2.78,4.07-6.67,4.07-11.67s-1.36-8.88-4.07-11.67-6.31-4.17-10.81-4.17-8.08,1.39-10.76,4.17-4.01,6.67-4.01,11.67Z"/>
        <path class="cls-3" d="M607.91,140.7c0-1.93.68-3.58,2.03-4.98,1.36-1.39,3.03-2.09,5.03-2.09s3.67.7,5.03,2.09c1.36,1.39,2.03,3.05,2.03,4.98,0,2.07-.68,3.78-2.03,5.14-1.36,1.36-3.03,2.03-5.03,2.03s-3.68-.68-5.03-2.03c-1.36-1.35-2.03-3.07-2.03-5.14ZM608.56,156.22h12.84v53.52h-12.84v-53.52Z"/>
        <path class="cls-3" d="M653.3,155.47c4.14,0,7.92.66,11.35,1.98,3.43,1.32,6.35,3.19,8.78,5.62,2.43,2.43,4.3,5.35,5.62,8.78,1.32,3.42,1.98,7.21,1.98,11.35v26.54h-12.84v-5.14c-1.28,1.64-3.26,3.07-5.94,4.28-2.68,1.21-5.98,1.82-9.9,1.82s-7.42-.66-10.7-1.98c-3.28-1.32-6.1-3.19-8.46-5.62-2.35-2.43-4.19-5.35-5.51-8.78-1.32-3.43-1.98-7.21-1.98-11.35s.66-7.9,1.98-11.29c1.32-3.39,3.19-6.28,5.62-8.67,2.43-2.39,5.33-4.24,8.72-5.57,3.39-1.32,7.15-1.98,11.29-1.98ZM668.17,183.09c0-4.99-1.34-8.88-4.01-11.67s-6.26-4.17-10.76-4.17-8.1,1.39-10.81,4.17c-2.71,2.78-4.07,6.67-4.07,11.67s1.35,8.88,4.07,11.67c2.71,2.78,6.31,4.17,10.81,4.17s8.08-1.39,10.76-4.17,4.01-6.67,4.01-11.67Z"/>
      </g>
    </g>
  </g>
</svg>